<svg xmlns="http://www.w3.org/2000/svg" height="20" width="20"><path d="M10 12.542q1.062 0 1.802-.74t.74-1.802q0-1.062-.74-1.802T10 7.458q-1.062 0-1.802.74T7.458 10q0 1.062.74 1.802t1.802.74Zm0 1q-1.479 0-2.51-1.032Q6.458 11.479 6.458 10q0-1.479 1.032-2.51Q8.521 6.458 10 6.458q1.479 0 2.51 1.032 1.032 1.031 1.032 2.51 0 1.479-1.032 2.51-1.031 1.032-2.51 1.032ZM1.75 10.5q-.208 0-.354-.146T1.25 10q0-.208.146-.354T1.75 9.5h2.208q.209 0 .354.146.146.146.146.354t-.146.354q-.145.146-.354.146Zm14.292 0q-.209 0-.354-.146-.146-.146-.146-.354t.146-.354q.145-.146.354-.146h2.208q.208 0 .354.146t.146.354q0 .208-.146.354t-.354.146ZM10 4.458q-.208 0-.354-.145-.146-.146-.146-.355V1.75q0-.208.146-.354T10 1.25q.208 0 .354.146t.146.354v2.208q0 .209-.146.355-.146.145-.354.145Zm0 14.292q-.208 0-.354-.146T9.5 18.25v-2.208q0-.209.146-.354.146-.146.354-.146t.354.146q.146.145.146.354v2.208q0 .208-.146.354T10 18.75ZM5.375 6.062 4.167 4.854q-.146-.146-.157-.333-.01-.188.178-.333.124-.167.322-.178.198-.01.344.157l1.208 1.187q.188.167.188.365 0 .198-.167.364-.145.146-.354.146-.208 0-.354-.167Zm9.771 9.771-1.208-1.187q-.188-.146-.188-.344 0-.198.188-.385.124-.146.333-.146.208 0 .375.167l1.187 1.208q.146.146.157.333.01.188-.157.333-.166.167-.343.178-.178.01-.344-.157Zm-1.229-9.75q-.146-.145-.146-.354 0-.208.167-.375l1.208-1.187q.166-.146.344-.146.177 0 .322.167.167.145.178.322.01.178-.157.344l-1.187 1.208q-.167.188-.365.188-.198 0-.364-.167Zm-9.729 9.75q-.167-.145-.178-.343-.01-.198.157-.344l1.187-1.208q.146-.167.344-.167.198 0 .385.167.146.145.136.343-.011.198-.157.344l-1.208 1.208Q4.708 16 4.521 16q-.188 0-.333-.167ZM10 10Z"/></svg>